<?xml version="1.0" encoding="UTF-8"?>
<svg xmlns="http://www.w3.org/2000/svg" version="1.1" xmlns:xlink="http://www.w3.org/1999/xlink" viewBox="0 0 1920 1080">
  <defs>
    <style>
      .cls-1, .cls-2, .cls-3, .cls-4, .cls-5 {
        stroke-miterlimit: 10;
      }

      .cls-1, .cls-3, .cls-5 {
        stroke: #000;
      }

      .cls-1, .cls-4 {
        fill: none;
      }

      .cls-2 {
        fill: url(#_무제_그라디언트_4);
      }

      .cls-2, .cls-4 {
        stroke: #231815;
        stroke-width: 2px;
      }

      .cls-3 {
        fill: #e3ea8e;
      }

      .cls-5 {
        fill: url(#_무제_그라디언트_3);
      }

      .cls-6 {
        font-family: TimesNewRomanPS-BoldMT, 'Times New Roman';
        font-size: 8px;
        font-weight: 700;
      }
    </style>
    <linearGradient id="_무제_그라디언트_4" data-name="무제 그라디언트 4" x1="554.56" y1="343.83" x2="554.56" y2="410.83" gradientUnits="userSpaceOnUse">
      <stop offset="0" stop-color="#7e98f0"/>
      <stop offset="1" stop-color="#963"/>
    </linearGradient>
    <linearGradient id="_무제_그라디언트_3" data-name="무제 그라디언트 3" x1="644.51" y1="484.46" x2="773.09" y2="484.46" gradientUnits="userSpaceOnUse">
      <stop offset="0" stop-color="#9a9577"/>
      <stop offset="1" stop-color="#063551"/>
    </linearGradient>
  </defs>
  <!-- Generator: Adobe Illustrator 28.7.2, SVG Export Plug-In . SVG Version: 1.2.0 Build 154)  -->
  <g>
    <g id="_레이어_1" data-name="레이어_1">
      <g>
        <rect class="cls-4" x="533.99" y="325.29" width="41.15" height="87.59"/>
        <rect class="cls-2" x="533.99" y="344.09" width="41.15" height="68.8"/>
      </g>
      <rect class="cls-4" x="613.11" y="346.79" width="24.91" height="53.21"/>
      <g>
        <text class="cls-6" transform="translate(508.92 569.81)"><tspan x="0" y="0">3300sec ~ 3600sec average data of Clearlight</tspan><tspan x="10.44" y="9.6">3300sec ~ 3600sec average data of Red</tspan><tspan x="6.67" y="19.2">3300sec ~ 3600sec average data of Green</tspan><tspan x="9.55" y="28.8">3300sec ~ 3600sec average data of Blue </tspan></text>
        <text/>
      </g>
      <g>
        <polyline class="cls-1" points="709 548.47 709 580.8 674.18 580.8"/>
        <path d="M672.37,580.8c.85-.32,1.91-.86,2.56-1.43l-.52,1.43.52,1.43c-.66-.57-1.71-1.11-2.56-1.43Z"/>
      </g>
      <g>
        <polyline class="cls-1" points="675.46 373.8 709 373.8 709 427.53"/>
        <path d="M709,429.34c-.32-.85-.86-1.91-1.43-2.56l1.43.52,1.43-.52c-.57.66-1.11,1.71-1.43,2.56Z"/>
      </g>
      <g>
        <polyline class="cls-1" points="497.11 580.8 460 580.8 460 373.8 498.72 373.8"/>
        <path d="M500.53,373.8c-.85.32-1.91.86-2.56,1.43l.52-1.43-.52-1.43c.66.57,1.71,1.11,2.56,1.43Z"/>
      </g>
      <g>
        <rect class="cls-3" x="698.54" y="441.37" width="20.52" height="4.24"/>
        <rect class="cls-1" x="652.79" y="445.91" width="112.8" height="77.09"/>
        <line class="cls-1" x1="670.39" y1="467.26" x2="670.39" y2="445.91"/>
        <polygon class="cls-5" points="765.57 519.62 757.95 519.62 757.95 472.96 765.57 472.96 765.57 467.26 670.39 467.26 670.39 472.57 670.39 472.96 670.39 519.62 663.04 519.62 663.04 449.3 663.04 445.91 659.66 445.91 644.51 445.91 644.51 449.3 659.66 449.3 659.66 519.62 659.66 523 663.04 523 670.39 523 678.18 523 747.48 523 747.48 472.96 754.57 472.96 754.57 519.62 754.57 523 757.95 523 765.57 523 773.09 523 773.09 519.62 765.57 519.62"/>
      </g>
      <g>
        <text class="cls-6" transform="translate(302.12 474.4)"><tspan x="0" y="0">Adding and subtracting specific seconds</tspan><tspan x="-7.88" y="9.6">based on the sensor value corresponding to a </tspan><tspan x="28.46" y="19.2">concentration of 1mg/L</tspan></text>
        <text/>
      </g>
      <g>
        <polyline class="cls-1" points="555 320 555 293.81 626 293.81 626 337.59"/>
        <path d="M626,339.4c-.32-.85-.86-1.91-1.43-2.56l1.43.52,1.43-.52c-.57.66-1.11,1.71-1.43,2.56Z"/>
      </g>
      <g>
        <text class="cls-6" transform="translate(533.86 429.43)"><tspan x="0" y="0">SBR reactor</tspan></text>
        <text/>
      </g>
      <g>
        <text class="cls-6" transform="translate(596.42 416.43)"><tspan x="0" y="0">Effluent collector</tspan></text>
        <text/>
      </g>
      <g>
        <text class="cls-6" transform="translate(685.42 541.43)"><tspan x="0" y="0">RGB detector</tspan></text>
        <text/>
      </g>
    </g>
  </g>
</svg>