<?xml version="1.0" encoding="UTF-8"?>
<svg xmlns="http://www.w3.org/2000/svg" version="1.1" viewBox="0 0 1920 1080">
  <defs>
    <style>
      .cls-1 {
        fill: #231815;
        font-family: TimesNewRomanPSMT, 'Times New Roman';
        font-size: 7px;
      }

      .cls-2 {
        stroke: #7599f2;
      }

      .cls-2, .cls-3, .cls-4 {
        fill: none;
      }

      .cls-2, .cls-3, .cls-4, .cls-5 {
        stroke-miterlimit: 10;
      }

      .cls-3 {
        stroke: #231815;
      }

      .cls-6 {
        fill: #2cb34c;
      }

      .cls-7 {
        fill: #fff;
      }

      .cls-8 {
        fill: #7ac044;
      }

      .cls-9, .cls-5 {
        fill: #963;
      }

      .cls-10 {
        fill: #add036;
      }

      .cls-11 {
        fill: #7e98f0;
      }

      .cls-4 {
        stroke: #00012e;
        stroke-width: .5px;
      }

      .cls-12 {
        fill: #7599f2;
      }

      .cls-5 {
        stroke: #000;
      }

      .cls-13 {
        display: none;
      }

      .cls-14 {
        fill: #95c83f;
      }

      .cls-15 {
        fill: #00813e;
      }
    </style>
  </defs>
  <!-- Generator: Adobe Illustrator 28.7.1, SVG Export Plug-In . SVG Version: 1.2.0 Build 142)  -->
  <g>
    <g id="_레이어_1" data-name="레이어_1">
      <g class="cls-13">
        <rect class="cls-9" x="305.38" y="406.48" width="30" height="25.92"/>
        <rect class="cls-3" x="305.17" y="367.9" width="30.41" height="64.72"/>
        <line class="cls-5" x1="305.38" y1="406.48" x2="335.38" y2="406.48"/>
        <g>
          <line class="cls-3" x1="320.39" y1="364.73" x2="320.39" y2="426.4"/>
          <ellipse class="cls-3" cx="314.9" cy="426.47" rx="5.49" ry="1.98"/>
          <ellipse class="cls-3" cx="325.88" cy="426.47" rx="5.49" ry="1.98"/>
        </g>
      </g>
      <text class="cls-1" transform="translate(443.28 294.12)"><tspan x="0" y="0">Anoxic</tspan></text>
      <text class="cls-1" transform="translate(516.31 461.12)"><tspan x="0" y="0">Aerobic</tspan></text>
      <text class="cls-1" transform="translate(386.61 592.12)"><tspan x="0" y="0">Settle</tspan></text>
      <rect class="cls-11" x="378.94" y="522.31" width="30.39" height="25.69"/>
      <rect class="cls-9" x="379.22" y="545.26" width="30" height="25.92"/>
      <line class="cls-5" x1="378.94" y1="522.31" x2="408.94" y2="522.31"/>
      <rect class="cls-3" x="379.13" y="506.8" width="30.41" height="64.72"/>
      <rect class="cls-3" x="379.13" y="507.06" width="30.41" height="64.72" transform="translate(788.67 1078.85) rotate(-180)"/>
      <g>
        <line class="cls-3" x1="394.26" y1="504.16" x2="394.26" y2="565.83"/>
        <ellipse class="cls-3" cx="388.76" cy="565.9" rx="5.49" ry="1.98"/>
        <ellipse class="cls-3" cx="399.75" cy="565.9" rx="5.49" ry="1.98"/>
      </g>
      <text class="cls-1" transform="translate(246.81 463.12)"><tspan x="0" y="0">Draw</tspan></text>
      <rect class="cls-9" x="285.08" y="464.43" width="30" height="25.92"/>
      <rect class="cls-3" x="284.86" y="425.85" width="30.41" height="64.72"/>
      <line class="cls-5" x1="285.08" y1="464.43" x2="315.08" y2="464.43"/>
      <g>
        <line class="cls-3" x1="300.09" y1="422.68" x2="300.09" y2="484.35"/>
        <ellipse class="cls-3" cx="294.59" cy="484.42" rx="5.49" ry="1.98"/>
        <ellipse class="cls-3" cx="305.58" cy="484.42" rx="5.49" ry="1.98"/>
      </g>
      <g>
        <polyline class="cls-2" points="273.59 415.43 292.28 415.43 292.28 450.26"/>
        <path class="cls-12" d="M271.78,415.43c.85.32,1.91.86,2.56,1.43l-.52-1.43.52-1.43c-.66.57-1.71,1.11-2.56,1.43Z"/>
      </g>
      <rect class="cls-3" x="285.13" y="425.88" width="30.41" height="64.72"/>
      <rect class="cls-3" x="285.13" y="426.14" width="30.41" height="64.72" transform="translate(600.67 917) rotate(-180)"/>
      <g>
        <line class="cls-3" x1="300.26" y1="423.24" x2="300.26" y2="484.9"/>
        <ellipse class="cls-3" cx="294.76" cy="484.98" rx="5.49" ry="1.98"/>
        <ellipse class="cls-3" cx="305.75" cy="484.98" rx="5.49" ry="1.98"/>
      </g>
      <g>
        <rect class="cls-9" x="438.61" y="329.09" width="30.39" height="49.21"/>
        <line class="cls-5" x1="438.61" y1="329.09" x2="468.61" y2="329.09"/>
        <g>
          <rect class="cls-3" x="438.8" y="313.58" width="30.41" height="64.72"/>
          <rect class="cls-3" x="438.8" y="313.85" width="30.41" height="64.72" transform="translate(908.02 692.41) rotate(-180)"/>
          <g>
            <line class="cls-3" x1="453.93" y1="310.94" x2="453.93" y2="372.61"/>
            <ellipse class="cls-3" cx="448.44" cy="372.68" rx="5.49" ry="1.98"/>
            <ellipse class="cls-3" cx="459.42" cy="372.68" rx="5.49" ry="1.98"/>
          </g>
          <g>
            <path class="cls-4" d="M458.12,357.72l-7.82.37,1.12.61c-.35.02-.7.03-1.07.03-3.18,0-5.77-.63-5.77-1.4,0-.57,1.39-1.05,3.38-1.27l-1.18-.59c-3.01.32-5.11,1.05-5.11,1.9,0,1.14,3.82,2.07,8.53,2.07.83,0,1.63-.03,2.39-.09l1.74.95,3.8-2.57Z"/>
            <path class="cls-4" d="M449.9,355.09l7.82-.37-1.12-.61c.35-.02.7-.03,1.07-.03,3.18,0,5.77.63,5.77,1.4,0,.57-1.39,1.05-3.38,1.27l1.18.59c3.01-.32,5.11-1.05,5.11-1.9,0-1.14-3.82-2.07-8.53-2.07-.83,0-1.63.03-2.39.09l-1.74-.95-3.8,2.57Z"/>
          </g>
        </g>
      </g>
      <g>
        <text class="cls-1" transform="translate(318.5 294.12)"><tspan x="0" y="0">Influent</tspan></text>
        <rect class="cls-9" x="315" y="350.5" width="30" height="25.92"/>
        <rect class="cls-3" x="314.78" y="311.92" width="30.41" height="64.72"/>
        <line class="cls-5" x1="315" y1="350.5" x2="345" y2="350.5"/>
        <g>
          <line class="cls-3" x1="330.01" y1="308.75" x2="330.01" y2="370.42"/>
          <ellipse class="cls-3" cx="324.51" cy="370.49" rx="5.49" ry="1.98"/>
          <ellipse class="cls-3" cx="335.5" cy="370.49" rx="5.49" ry="1.98"/>
        </g>
        <g>
          <polyline class="cls-2" points="301.7 301.5 322.2 301.5 322.2 334.52"/>
          <path class="cls-12" d="M322.2,336.33c-.32-.85-.86-1.91-1.43-2.56l1.43.52,1.43-.52c-.57.66-1.11,1.71-1.43,2.56Z"/>
        </g>
      </g>
      <g>
        <path class="cls-6" d="M418.77,485.96l-9.27-12.77c-4.21,3.01-9.37,4.79-14.94,4.79-2.18,0-4.29-.28-6.3-.78l3.47-4.66-31.54-3.71,12.56,29.17,5.62-7.53c4.98,2.11,10.45,3.29,16.2,3.29,9.04,0,17.4-2.89,24.21-7.8Z"/>
        <path class="cls-8" d="M452.03,424.13l-15.01,4.88c1.56,4.94,1.66,10.39-.06,15.69-.67,2.07-1.59,3.99-2.69,5.75l-3.36-4.74-13.28,28.85,31.62-2.93-5.43-7.67c3.55-4.08,6.36-8.92,8.13-14.39,2.79-8.6,2.63-17.44.07-25.44Z"/>
        <path class="cls-14" d="M404.1,373.71v15.78c5.18.04,10.39,1.63,14.9,4.91,1.76,1.28,3.31,2.74,4.64,4.34l-5.55,1.73,23.34,21.54,6.99-30.98-8.97,2.79c-2.78-4.64-6.52-8.8-11.17-12.18-7.31-5.31-15.78-7.89-24.17-7.92Z"/>
        <path class="cls-10" d="M340.69,403.62l15.01,4.88c1.64-4.91,4.76-9.38,9.27-12.66,1.76-1.28,3.63-2.3,5.56-3.07l-.07,5.81,27.7-15.54-27.3-16.22-.12,9.39c-5.27,1.22-10.39,3.48-15.04,6.86-7.31,5.31-12.38,12.57-15.01,20.54Z"/>
        <path class="cls-15" d="M350.06,472.88l9.27-12.77c-4.17-3.07-7.45-7.43-9.17-12.73-.67-2.07-1.06-4.16-1.2-6.24l5.51,1.86-6.22-31.14-23.86,20.96,8.9,3.01c-.47,5.39.1,10.95,1.88,16.42,2.79,8.6,8.13,15.65,14.9,20.62Z"/>
      </g>
      <g>
        <g>
          <rect class="cls-9" x="466.61" y="441.38" width="30.39" height="49.21"/>
          <line class="cls-5" x1="466.61" y1="441.38" x2="496.61" y2="441.38"/>
          <g>
            <rect class="cls-3" x="466.8" y="425.88" width="30.41" height="64.72"/>
            <rect class="cls-3" x="466.8" y="426.14" width="30.41" height="64.72" transform="translate(964.02 917) rotate(-180)"/>
            <g>
              <line class="cls-3" x1="481.93" y1="423.24" x2="481.93" y2="484.9"/>
              <ellipse class="cls-3" cx="476.44" cy="484.98" rx="5.49" ry="1.98"/>
              <ellipse class="cls-3" cx="487.42" cy="484.98" rx="5.49" ry="1.98"/>
            </g>
            <g>
              <path class="cls-4" d="M486.12,470.02l-7.82.37,1.12.61c-.35.02-.7.03-1.07.03-3.18,0-5.77-.63-5.77-1.4,0-.57,1.39-1.05,3.38-1.27l-1.18-.59c-3.01.32-5.11,1.05-5.11,1.9,0,1.14,3.82,2.07,8.53,2.07.83,0,1.63-.03,2.39-.09l1.74.95,3.8-2.57Z"/>
              <path class="cls-4" d="M477.9,467.38l7.82-.37-1.12-.61c.35-.02.7-.03,1.07-.03,3.18,0,5.77.63,5.77,1.4,0,.57-1.39,1.05-3.38,1.27l1.18.59c3.01-.32,5.11-1.05,5.11-1.9,0-1.14-3.82-2.07-8.53-2.07-.83,0-1.63.03-2.39.09l-1.74-.95-3.8,2.57Z"/>
            </g>
          </g>
          <g>
            <line class="cls-3" x1="481.72" y1="423.55" x2="481.72" y2="485.22"/>
            <ellipse class="cls-3" cx="476.23" cy="485.29" rx="5.49" ry="1.98"/>
            <ellipse class="cls-3" cx="487.21" cy="485.29" rx="5.49" ry="1.98"/>
          </g>
        </g>
        <circle class="cls-7" cx="476" cy="458" r="1"/>
        <circle class="cls-7" cx="481.5" cy="454.5" r="1.5"/>
        <circle class="cls-7" cx="476" cy="451" r="1"/>
        <circle class="cls-7" cx="489" cy="452" r="1"/>
        <circle class="cls-7" cx="487" cy="457" r="1"/>
        <circle class="cls-7" cx="486" cy="450" r="1"/>
        <circle class="cls-7" cx="472.78" cy="451.67" r=".61"/>
        <circle class="cls-7" cx="484.39" cy="456.94" r=".61"/>
        <circle class="cls-7" cx="479.78" cy="451.33" r=".61"/>
        <circle class="cls-7" cx="491.5" cy="455.5" r="1.5"/>
        <circle class="cls-7" cx="479.78" cy="451.33" r=".61"/>
        <circle class="cls-7" cx="477" cy="454" r="1"/>
        <circle class="cls-7" cx="473.28" cy="454.39" r="1"/>
        <circle class="cls-7" cx="486" cy="454" r="1"/>
        <circle class="cls-7" cx="484" cy="459" r="1"/>
        <circle class="cls-7" cx="480.67" cy="458.33" r=".61"/>
        <circle class="cls-7" cx="479.06" cy="455.72" r=".61"/>
        <circle class="cls-7" cx="478.06" cy="456.72" r=".61"/>
      </g>
    </g>
  </g>
</svg>