<?xml version="1.0" encoding="UTF-8"?>
<svg xmlns="http://www.w3.org/2000/svg" baseProfile="tiny" version="1.2" viewBox="0 0 595.28 841.89">
  <!-- Generator: Adobe Illustrator 28.7.2, SVG Export Plug-In . SVG Version: 1.2.0 Build 154)  -->
  <g>
    <g id="_레이어_1" data-name="레이어_1">
      <g>
        <path d="M401.44,140.36h-3.56l-.62,1.45c-.15.36-.23.62-.23.8,0,.14.07.26.2.37.13.11.42.18.87.21v.25h-2.9v-.25c.38-.07.63-.16.75-.26.23-.22.49-.66.77-1.32l3.24-7.57h.24l3.2,7.66c.26.62.49,1.01.7,1.2.21.18.5.29.88.31v.25h-3.63v-.25c.37-.02.61-.08.74-.18.13-.1.19-.23.19-.38,0-.2-.09-.51-.27-.94l-.56-1.32ZM401.25,139.86l-1.56-3.72-1.6,3.72h3.16Z" fill="#231815"/>
        <path d="M407.36,138.36c.73-.88,1.42-1.32,2.08-1.32.34,0,.63.08.88.25.24.17.44.45.58.84.1.27.15.69.15,1.25v2.65c0,.39.03.66.09.8.05.11.13.2.24.26.11.06.32.1.61.1v.24h-3.07v-.24h.13c.29,0,.49-.04.61-.13.12-.09.2-.22.24-.39.02-.07.03-.28.03-.64v-2.55c0-.57-.07-.98-.22-1.23-.15-.26-.4-.38-.74-.38-.54,0-1.08.29-1.61.88v3.28c0,.42.03.68.08.78.06.13.15.23.26.29.11.06.34.09.68.09v.24h-3.07v-.24h.14c.32,0,.53-.08.64-.24.11-.16.17-.47.17-.92v-2.31c0-.75-.02-1.2-.05-1.36-.03-.16-.09-.27-.16-.33-.07-.06-.16-.09-.28-.09-.13,0-.28.03-.45.1l-.1-.24,1.87-.76h.29v1.32Z" fill="#231815"/>
        <path d="M415.54,137.04c.94,0,1.7.36,2.27,1.07.48.61.73,1.31.73,2.1,0,.56-.13,1.12-.4,1.69-.27.57-.63,1-1.1,1.29-.47.29-.99.43-1.56.43-.94,0-1.68-.37-2.23-1.12-.47-.63-.7-1.33-.7-2.12,0-.57.14-1.14.42-1.7.28-.56.66-.98,1.12-1.25.46-.27.95-.4,1.47-.4ZM415.33,137.48c-.24,0-.48.07-.72.21s-.44.39-.59.75c-.15.36-.22.82-.22,1.38,0,.91.18,1.69.54,2.34.36.66.83.98,1.42.98.44,0,.8-.18,1.09-.54.29-.36.43-.98.43-1.87,0-1.1-.24-1.97-.71-2.61-.32-.43-.73-.65-1.23-.65Z" fill="#231815"/>
        <path d="M419.2,137.23h2.92v.25c-.19,0-.32.03-.39.1-.07.06-.11.15-.11.25s.08.28.24.5c.05.07.12.19.22.34l.44.71.51-.71c.33-.45.49-.73.49-.85,0-.09-.04-.18-.12-.24-.08-.07-.2-.1-.37-.1v-.25h2.1v.25c-.22.01-.41.07-.58.18-.22.15-.53.49-.91,1l-.85,1.13,1.55,2.23c.38.55.65.88.81.99.16.11.37.17.63.19v.24h-2.93v-.24c.2,0,.36-.05.47-.14.09-.06.13-.15.13-.25s-.14-.37-.43-.79l-.91-1.33-1,1.33c-.31.41-.46.66-.46.73,0,.11.05.21.15.3.1.09.25.14.46.15v.24h-2.03v-.24c.16-.02.31-.08.43-.17.17-.13.46-.47.87-1l1.3-1.73-1.18-1.71c-.33-.49-.59-.8-.78-.92-.18-.12-.41-.19-.69-.19v-.25Z" fill="#231815"/>
        <path d="M428.54,137.04v5c0,.39.03.65.08.78s.14.23.25.29c.11.06.31.1.61.1v.24h-3.02v-.24c.3,0,.51-.03.61-.09.1-.06.19-.16.25-.29.06-.14.09-.4.09-.78v-2.4c0-.67-.02-1.11-.06-1.31-.03-.15-.08-.25-.15-.3-.07-.06-.16-.08-.28-.08-.13,0-.28.03-.46.1l-.09-.24,1.87-.76h.3ZM427.98,133.79c.19,0,.35.07.49.2s.2.29.2.49-.07.35-.2.49-.29.2-.49.2-.35-.07-.49-.2-.2-.3-.2-.49.07-.35.2-.49c.13-.13.3-.2.49-.2Z" fill="#231815"/>
        <path d="M435.54,141.08c-.17.82-.5,1.45-.98,1.89-.49.44-1.03.66-1.62.66-.71,0-1.32-.3-1.85-.89-.53-.59-.79-1.39-.79-2.4s.29-1.77.87-2.38c.58-.61,1.28-.92,2.09-.92.61,0,1.11.16,1.51.48.39.32.59.66.59,1.01,0,.17-.06.31-.17.42-.11.11-.27.16-.46.16-.27,0-.47-.09-.6-.26-.08-.1-.13-.28-.15-.54-.03-.27-.12-.47-.28-.61-.16-.14-.38-.2-.66-.2-.45,0-.82.17-1.09.5-.37.44-.55,1.03-.55,1.76s.18,1.4.55,1.96c.36.57.86.85,1.48.85.44,0,.84-.15,1.2-.45.25-.21.49-.59.73-1.13l.2.1Z" fill="#231815"/>
      </g>
      <g>
        <rect x="527.89" y="461.76" width="69.18" height="15.03" fill="none"/>
        <path d="M546.45,471.97h-3.56l-.62,1.45c-.15.36-.23.62-.23.8,0,.14.07.26.2.37.13.11.42.17.87.21v.25h-2.9v-.25c.38-.07.63-.16.75-.26.23-.22.49-.66.77-1.32l3.24-7.57h.24l3.2,7.66c.26.62.49,1.01.7,1.2.21.18.5.29.88.31v.25h-3.63v-.25c.37-.02.61-.08.74-.18.13-.1.19-.23.19-.38,0-.2-.09-.51-.27-.94l-.56-1.32ZM546.26,471.46l-1.56-3.72-1.6,3.72h3.16Z" fill="#231815"/>
        <path d="M551.61,471.17c0,.92.22,1.65.67,2.17.45.52.98.79,1.59.79.41,0,.76-.11,1.06-.34.3-.22.55-.61.76-1.15l.21.14c-.09.62-.37,1.18-.83,1.69s-1.03.76-1.72.76c-.75,0-1.39-.29-1.92-.87-.53-.58-.8-1.36-.8-2.35,0-1.06.27-1.89.82-2.49.54-.59,1.23-.89,2.05-.89.7,0,1.27.23,1.72.69.45.46.67,1.07.67,1.84h-4.3ZM551.61,470.78h2.88c-.02-.4-.07-.68-.14-.84-.11-.25-.28-.45-.51-.6-.22-.14-.46-.22-.7-.22-.38,0-.71.15-1.01.44-.3.29-.47.7-.52,1.22Z" fill="#231815"/>
        <path d="M558.55,468.65v1.4c.52-.93,1.05-1.4,1.6-1.4.25,0,.45.08.62.23s.24.33.24.53c0,.18-.06.33-.18.45-.12.12-.26.18-.42.18s-.34-.08-.53-.23-.34-.23-.44-.23c-.08,0-.17.04-.26.14-.2.19-.41.49-.63.92v2.98c0,.34.04.6.13.78.06.12.16.22.31.31.15.08.36.12.64.12v.24h-3.18v-.24c.32,0,.55-.05.71-.15.11-.07.19-.19.24-.35.02-.08.03-.3.03-.66v-2.41c0-.72-.01-1.15-.04-1.29-.03-.14-.08-.24-.16-.3s-.18-.09-.3-.09c-.14,0-.3.03-.47.1l-.07-.24,1.88-.76h.29Z" fill="#231815"/>
        <path d="M564.4,468.65c.94,0,1.7.36,2.27,1.07.48.61.73,1.31.73,2.1,0,.56-.13,1.12-.4,1.69-.27.57-.63,1-1.1,1.29-.47.29-.99.43-1.56.43-.94,0-1.68-.37-2.23-1.12-.47-.63-.7-1.33-.7-2.12,0-.57.14-1.14.42-1.7.28-.56.66-.98,1.12-1.25.46-.27.95-.4,1.47-.4ZM564.19,469.09c-.24,0-.48.07-.72.21s-.44.39-.59.75c-.15.36-.22.82-.22,1.38,0,.9.18,1.69.54,2.34.36.66.83.98,1.42.98.44,0,.8-.18,1.09-.54.29-.36.43-.98.43-1.87,0-1.1-.24-1.97-.71-2.61-.32-.43-.73-.65-1.23-.65Z" fill="#231815"/>
        <path d="M570.02,469.9c.6-.84,1.25-1.26,1.95-1.26.64,0,1.19.27,1.67.82.48.54.71,1.29.71,2.24,0,1.1-.37,1.99-1.1,2.67-.63.58-1.33.87-2.1.87-.36,0-.73-.07-1.1-.2-.37-.13-.75-.33-1.14-.59v-6.44c0-.71-.02-1.14-.05-1.3-.03-.16-.09-.27-.16-.33s-.16-.09-.27-.09c-.13,0-.29.04-.47.11l-.1-.24,1.87-.76h.31v4.51ZM570.02,470.34v3.72c.23.23.47.4.72.51.25.12.5.17.76.17.41,0,.8-.23,1.15-.68.36-.45.53-1.11.53-1.97,0-.8-.18-1.41-.53-1.84-.35-.43-.76-.64-1.21-.64-.24,0-.48.06-.72.18-.18.09-.41.27-.69.54Z" fill="#231815"/>
        <path d="M577.41,468.65v5c0,.39.03.65.08.78s.14.23.25.29c.11.06.31.09.61.09v.24h-3.02v-.24c.3,0,.51-.03.61-.09.1-.06.19-.16.25-.29.06-.14.09-.4.09-.78v-2.4c0-.67-.02-1.11-.06-1.31-.03-.14-.08-.25-.15-.3-.07-.06-.16-.08-.28-.08-.13,0-.28.03-.46.1l-.09-.24,1.87-.76h.3ZM576.84,465.4c.19,0,.35.07.49.2.13.13.2.3.2.49s-.07.35-.2.49-.29.2-.49.2-.35-.07-.49-.2-.2-.3-.2-.49.07-.35.2-.49c.13-.13.3-.2.49-.2Z" fill="#231815"/>
        <path d="M584.41,472.69c-.17.82-.5,1.45-.98,1.89s-1.03.66-1.62.66c-.71,0-1.32-.3-1.85-.89-.53-.59-.79-1.39-.79-2.4s.29-1.77.87-2.38c.58-.61,1.28-.92,2.09-.92.61,0,1.11.16,1.51.49.39.32.59.66.59,1.01,0,.17-.06.31-.17.42-.11.11-.27.16-.46.16-.27,0-.47-.09-.6-.26-.08-.09-.13-.28-.15-.54-.03-.27-.12-.47-.28-.61-.16-.14-.38-.2-.66-.2-.45,0-.82.17-1.09.5-.37.44-.55,1.03-.55,1.76s.18,1.4.55,1.96c.36.57.86.85,1.48.85.44,0,.84-.15,1.2-.45.25-.21.49-.59.73-1.13l.2.09Z" fill="#231815"/>
      </g>
      <g>
        <rect x="263.8" y="721.88" width="69.18" height="15.03" fill="none"/>
        <path d="M288.93,725.76v3.18h-.25c-.08-.61-.23-1.1-.44-1.46-.21-.36-.51-.65-.9-.86-.39-.21-.79-.32-1.21-.32-.47,0-.86.14-1.17.43s-.46.61-.46.98c0,.28.1.54.29.77.28.34.95.79,2,1.36.86.46,1.45.82,1.76,1.06.31.25.56.54.73.87.17.33.25.69.25,1.05,0,.7-.27,1.3-.81,1.8-.54.5-1.24.76-2.09.76-.27,0-.52-.02-.75-.06-.14-.02-.43-.11-.87-.25-.44-.14-.72-.21-.84-.21s-.2.03-.27.1c-.07.07-.11.21-.15.42h-.25v-3.16h.25c.12.66.28,1.15.48,1.48.2.33.5.6.91.82.41.22.86.33,1.35.33.57,0,1.01-.15,1.34-.45.33-.3.49-.65.49-1.06,0-.23-.06-.45-.19-.68-.12-.23-.32-.45-.58-.65-.18-.14-.66-.42-1.45-.87-.79-.44-1.35-.79-1.68-1.05-.33-.26-.58-.55-.76-.87s-.26-.67-.26-1.04c0-.66.25-1.23.76-1.71s1.15-.72,1.93-.72c.49,0,1.01.12,1.55.36.25.11.43.17.54.17.12,0,.21-.04.29-.11.07-.07.13-.21.18-.42h.25Z" fill="#231815"/>
        <path d="M291.77,731.29c0,.92.22,1.65.67,2.17.45.52.98.79,1.59.79.41,0,.76-.11,1.06-.34.3-.22.55-.61.76-1.15l.21.14c-.09.62-.37,1.18-.83,1.69s-1.03.76-1.72.76c-.75,0-1.39-.29-1.92-.87-.53-.58-.8-1.36-.8-2.35,0-1.06.27-1.89.82-2.49.54-.59,1.23-.89,2.05-.89.7,0,1.27.23,1.72.69.45.46.67,1.07.67,1.84h-4.3ZM291.77,730.9h2.88c-.02-.4-.07-.68-.14-.84-.11-.25-.28-.45-.51-.6-.22-.14-.46-.22-.7-.22-.38,0-.71.15-1.01.44-.3.29-.47.7-.52,1.22Z" fill="#231815"/>
        <path d="M298.7,726.91v2.04h1.45v.47h-1.45v4.03c0,.4.06.67.17.81.12.14.26.21.44.21.15,0,.29-.05.43-.14.14-.09.25-.23.33-.41h.26c-.16.44-.38.78-.67,1-.29.22-.59.34-.9.34-.21,0-.41-.06-.61-.17s-.35-.28-.44-.5c-.1-.21-.14-.55-.14-.99v-4.18h-.98v-.22c.25-.1.5-.27.76-.51.26-.24.49-.52.7-.84.1-.17.25-.49.43-.94h.21Z" fill="#231815"/>
        <path d="M302.56,726.91v2.04h1.45v.47h-1.45v4.03c0,.4.06.67.17.81.12.14.26.21.44.21.15,0,.29-.05.43-.14.14-.09.25-.23.33-.41h.26c-.16.44-.38.78-.67,1-.29.22-.59.34-.9.34-.21,0-.41-.06-.61-.17s-.35-.28-.44-.5c-.1-.21-.14-.55-.14-.99v-4.18h-.98v-.22c.25-.1.5-.27.76-.51.26-.24.49-.52.7-.84.1-.17.25-.49.43-.94h.21Z" fill="#231815"/>
        <path d="M306.75,725.52v8.25c0,.39.03.65.08.77.06.13.14.22.26.29.12.07.34.1.66.1v.24h-3.05v-.24c.29,0,.48-.03.58-.09.1-.06.19-.16.24-.29s.09-.4.09-.78v-5.65c0-.7-.02-1.13-.05-1.29-.03-.16-.08-.27-.15-.33s-.16-.09-.27-.09c-.12,0-.27.04-.45.11l-.12-.24,1.85-.76h.31Z" fill="#231815"/>
        <path d="M309.52,731.29c0,.92.22,1.65.67,2.17.45.52.98.79,1.59.79.41,0,.76-.11,1.06-.34.3-.22.55-.61.76-1.15l.21.14c-.09.62-.37,1.18-.83,1.69s-1.03.76-1.72.76c-.75,0-1.39-.29-1.92-.87-.53-.58-.8-1.36-.8-2.35,0-1.06.27-1.89.82-2.49.54-.59,1.23-.89,2.05-.89.7,0,1.27.23,1.72.69.45.46.67,1.07.67,1.84h-4.3ZM309.52,730.9h2.88c-.02-.4-.07-.68-.14-.84-.11-.25-.28-.45-.51-.6-.22-.14-.46-.22-.7-.22-.38,0-.71.15-1.01.44-.3.29-.47.7-.52,1.22Z" fill="#231815"/>
      </g>
      <rect x="267.32" y="596.54" width="60.34" height="51.02" fill="#7b92ca"/>
      <rect x="267.89" y="642.12" width="59.57" height="51.46" fill="#956533"/>
      <line x1="267.32" y1="596.54" x2="326.89" y2="596.54" fill="#956533" stroke="#040000" stroke-miterlimit="10"/>
      <rect x="267.7" y="565.75" width="60.38" height="128.52" fill="none" stroke="#231815" stroke-miterlimit="10"/>
      <rect x="267.7" y="566.27" width="60.38" height="128.52" transform="translate(595.79 1261.05) rotate(-180)" fill="none" stroke="#231815" stroke-miterlimit="10"/>
      <g>
        <line x1="297.74" y1="560.5" x2="297.74" y2="682.96" fill="none" stroke="#231815" stroke-miterlimit="10"/>
        <ellipse cx="286.83" cy="683.1" rx="10.91" ry="3.93" fill="none" stroke="#231815" stroke-miterlimit="10"/>
        <ellipse cx="308.65" cy="683.1" rx="10.91" ry="3.93" fill="none" stroke="#231815" stroke-miterlimit="10"/>
      </g>
      <g>
        <rect x="-14.2" y="465.73" width="69.18" height="15.03" fill="none"/>
        <path d="M5.19,479.02v-.25h.35c.39,0,.67-.12.83-.37.1-.15.15-.48.15-1v-5.95c0-.57-.06-.93-.19-1.08-.18-.2-.44-.3-.79-.3h-.35v-.25h3.75c1.38,0,2.42.16,3.14.47.72.31,1.29.83,1.73,1.56s.65,1.57.65,2.52c0,1.28-.39,2.35-1.17,3.21-.87.96-2.2,1.44-3.99,1.44h-4.11ZM7.82,478.35c.57.13,1.06.19,1.45.19,1.05,0,1.92-.37,2.61-1.11.69-.74,1.04-1.74,1.04-3s-.35-2.27-1.04-3.01c-.69-.73-1.58-1.1-2.67-1.1-.41,0-.87.07-1.39.2v7.83Z" fill="#231815"/>
        <path d="M17.25,472.62v1.4c.52-.93,1.05-1.4,1.6-1.4.25,0,.45.08.62.23.16.15.24.33.24.53,0,.18-.06.33-.18.45-.12.12-.26.18-.42.18s-.34-.08-.53-.23-.34-.23-.44-.23c-.08,0-.17.04-.26.14-.2.19-.41.49-.63.92v2.98c0,.34.04.6.13.78.06.12.16.22.31.31.15.08.36.12.65.12v.24h-3.18v-.24c.32,0,.55-.05.71-.15.11-.07.19-.19.24-.35.02-.08.03-.3.03-.66v-2.41c0-.72-.01-1.15-.04-1.29-.03-.14-.08-.24-.16-.3s-.18-.09-.29-.09c-.14,0-.3.03-.48.1l-.07-.24,1.88-.76h.29Z" fill="#231815"/>
        <path d="M23.58,478.12c-.64.49-1.04.78-1.2.85-.24.11-.5.17-.78.17-.43,0-.78-.15-1.06-.44-.28-.29-.42-.68-.42-1.16,0-.3.07-.57.2-.79.19-.31.51-.6.97-.87.46-.27,1.22-.6,2.29-.99v-.24c0-.62-.1-1.04-.29-1.28-.2-.23-.48-.35-.86-.35-.29,0-.51.08-.68.23-.17.15-.26.33-.26.53v.39c.01.21-.04.37-.15.48-.11.11-.25.17-.42.17s-.3-.06-.41-.18c-.11-.12-.16-.28-.16-.48,0-.39.2-.75.6-1.07.4-.33.96-.49,1.68-.49.55,0,1,.09,1.36.28.27.14.46.36.59.66.08.2.12.59.12,1.2v2.11c0,.59.01.96.03,1.09.02.13.06.22.11.27.05.04.11.07.18.07.07,0,.14-.02.19-.05.1-.06.28-.22.55-.5v.38c-.51.68-.99,1.02-1.45,1.02-.22,0-.4-.08-.53-.23-.13-.15-.2-.42-.2-.79ZM23.58,477.68v-2.37c-.68.27-1.12.46-1.32.58-.36.2-.61.41-.77.62-.15.22-.23.45-.23.71,0,.33.1.6.29.81.19.21.42.32.67.32.34,0,.8-.23,1.36-.68Z" fill="#231815"/>
        <path d="M25.88,472.8h2.61v.25c-.24.02-.4.06-.47.13-.07.07-.11.17-.11.29,0,.14.04.31.12.51l1.33,3.58,1.34-2.91-.35-.92c-.11-.27-.25-.46-.43-.56-.1-.06-.29-.1-.56-.12v-.25h2.96v.25c-.33.01-.56.07-.69.18-.09.07-.14.19-.14.35,0,.09.02.18.05.28l1.41,3.57,1.31-3.44c.09-.24.14-.44.14-.58,0-.09-.04-.16-.13-.23-.09-.07-.26-.11-.52-.12v-.25h1.96v.25c-.39.06-.68.33-.87.8l-2.08,5.36h-.28l-1.55-3.97-1.81,3.97h-.25l-2-5.23c-.13-.33-.26-.55-.39-.67-.13-.12-.33-.2-.6-.26v-.25Z" fill="#231815"/>
      </g>
      <rect x="80.95" y="481.61" width="59.57" height="51.46" fill="#956533"/>
      <rect x="80.52" y="405" width="60.38" height="128.52" fill="none" stroke="#231815" stroke-miterlimit="10"/>
      <line x1="80.95" y1="481.61" x2="140.52" y2="481.61" fill="#956533" stroke="#040000" stroke-miterlimit="10"/>
      <g>
        <line x1="110.75" y1="398.71" x2="110.75" y2="521.16" fill="none" stroke="#231815" stroke-miterlimit="10"/>
        <ellipse cx="99.84" cy="521.31" rx="10.91" ry="3.93" fill="none" stroke="#231815" stroke-miterlimit="10"/>
        <ellipse cx="121.66" cy="521.31" rx="10.91" ry="3.93" fill="none" stroke="#231815" stroke-miterlimit="10"/>
      </g>
      <g>
        <polyline points="56.36 384.31 95.26 384.31 95.26 453.48" fill="none" stroke="#7492cb" stroke-miterlimit="10"/>
        <path d="M54.55,384.31c.85.32,1.91.86,2.56,1.43l-.52-1.43.52-1.43c-.66.57-1.71,1.11-2.56,1.43Z" fill="#7492cb"/>
      </g>
      <rect x="81.05" y="405.06" width="60.38" height="128.52" fill="none" stroke="#231815" stroke-miterlimit="10"/>
      <rect x="81.05" y="405.58" width="60.38" height="128.52" transform="translate(222.48 939.67) rotate(-180)" fill="none" stroke="#231815" stroke-miterlimit="10"/>
      <g>
        <line x1="111.09" y1="399.81" x2="111.09" y2="522.27" fill="none" stroke="#231815" stroke-miterlimit="10"/>
        <ellipse cx="100.18" cy="522.41" rx="10.91" ry="3.93" fill="none" stroke="#231815" stroke-miterlimit="10"/>
        <ellipse cx="121.99" cy="522.41" rx="10.91" ry="3.93" fill="none" stroke="#231815" stroke-miterlimit="10"/>
      </g>
      <g>
        <rect x="385.81" y="212.87" width="60.34" height="97.71" fill="#956533"/>
        <line x1="385.81" y1="212.87" x2="445.38" y2="212.87" fill="#956533" stroke="#040000" stroke-miterlimit="10"/>
        <g>
          <rect x="386.2" y="182.08" width="60.38" height="128.52" fill="none" stroke="#231815" stroke-miterlimit="10"/>
          <rect x="386.2" y="182.6" width="60.38" height="128.52" transform="translate(832.78 493.72) rotate(-180)" fill="none" stroke="#231815" stroke-miterlimit="10"/>
          <g>
            <line x1="416.23" y1="176.84" x2="416.23" y2="299.29" fill="none" stroke="#231815" stroke-miterlimit="10"/>
            <ellipse cx="405.33" cy="299.44" rx="10.91" ry="3.93" fill="none" stroke="#231815" stroke-miterlimit="10"/>
            <ellipse cx="427.14" cy="299.44" rx="10.91" ry="3.93" fill="none" stroke="#231815" stroke-miterlimit="10"/>
          </g>
          <g>
            <path d="M424.56,269.73l-15.54.73,2.22,1.22c-.69.03-1.4.05-2.13.05-6.32,0-11.45-1.24-11.45-2.78,0-1.12,2.76-2.09,6.72-2.53l-2.35-1.18c-5.98.63-10.15,2.08-10.15,3.76,0,2.27,7.59,4.11,16.94,4.11,1.65,0,3.23-.06,4.74-.17l3.45,1.89,7.55-5.11Z" fill="none" stroke="#070f2a" stroke-miterlimit="10" stroke-width=".5"/>
            <path d="M408.22,264.5l15.54-.73-2.22-1.22c.69-.03,1.4-.05,2.13-.05,6.32,0,11.45,1.24,11.45,2.78,0,1.12-2.76,2.09-6.72,2.53l2.35,1.18c5.98-.63,10.15-2.08,10.15-3.76,0-2.27-7.59-4.11-16.94-4.11-1.65,0-3.23.06-4.74.17l-3.45-1.89-7.55,5.11Z" fill="none" stroke="#070f2a" stroke-miterlimit="10" stroke-width=".5"/>
          </g>
        </g>
      </g>
      <g>
        <g>
          <rect x="134.73" y="130.15" width="69.18" height="15.03" fill="none"/>
          <path d="M151.6,143.19v.25h-3.94v-.25h.33c.38,0,.66-.11.83-.33.11-.15.16-.49.16-1.05v-5.95c0-.47-.03-.77-.09-.92-.05-.11-.14-.21-.28-.29-.2-.11-.41-.16-.62-.16h-.33v-.25h3.94v.25h-.33c-.38,0-.65.11-.82.33-.11.15-.17.49-.17,1.05v5.95c0,.47.03.77.09.92.04.11.14.21.29.29.19.11.4.16.62.16h.33Z" fill="#231815"/>
          <path d="M154.19,138.36c.73-.88,1.42-1.32,2.08-1.32.34,0,.63.08.88.25.24.17.44.45.58.84.1.27.15.69.15,1.25v2.65c0,.39.03.66.1.8.05.11.13.2.24.26s.32.1.61.1v.24h-3.07v-.24h.13c.29,0,.49-.04.61-.13.12-.09.2-.22.24-.39.02-.07.03-.28.03-.64v-2.55c0-.57-.07-.98-.22-1.23-.15-.26-.4-.38-.74-.38-.54,0-1.07.29-1.61.88v3.28c0,.42.02.68.07.78.06.13.15.23.26.29s.34.09.68.09v.24h-3.07v-.24h.14c.32,0,.53-.08.64-.24s.17-.47.17-.92v-2.31c0-.75-.02-1.2-.05-1.36-.03-.16-.09-.27-.16-.33-.07-.06-.16-.09-.28-.09-.13,0-.28.03-.46.1l-.1-.24,1.87-.76h.29v1.32Z" fill="#231815"/>
          <path d="M161.76,137.72v4.09c0,.58.06.95.19,1.1.17.2.39.3.67.3h.56v.24h-3.71v-.24h.28c.18,0,.35-.05.5-.14.15-.09.25-.21.31-.37s.08-.45.08-.9v-4.09h-1.21v-.49h1.21v-.41c0-.62.1-1.14.3-1.57.2-.43.5-.78.91-1.04.41-.26.87-.4,1.38-.4.48,0,.91.15,1.31.46.26.2.39.43.39.69,0,.14-.06.26-.18.38-.12.12-.24.18-.38.18-.1,0-.21-.04-.33-.11-.12-.07-.26-.24-.42-.48s-.32-.41-.46-.5-.3-.13-.47-.13c-.21,0-.38.06-.53.17-.15.11-.25.28-.31.52-.06.23-.09.83-.09,1.8v.45h1.6v.49h-1.6Z" fill="#231815"/>
          <path d="M166.1,133.79v8.25c0,.39.03.65.08.77.06.13.14.22.26.29.12.07.34.1.66.1v.24h-3.05v-.24c.29,0,.48-.03.58-.09.1-.06.19-.16.24-.29.06-.14.09-.4.09-.78v-5.65c0-.7-.02-1.13-.05-1.29-.03-.16-.08-.27-.15-.33-.07-.06-.16-.09-.27-.09-.12,0-.27.04-.45.11l-.12-.24,1.85-.76h.31Z" fill="#231815"/>
          <path d="M173.27,137.23v3.77c0,.72.02,1.16.05,1.32.03.16.09.27.16.34s.16.09.26.09c.14,0,.3-.04.48-.12l.1.24-1.86.77h-.31v-1.32c-.53.58-.94.94-1.22,1.09-.28.15-.58.22-.89.22-.35,0-.65-.1-.91-.3-.26-.2-.43-.46-.53-.78-.1-.32-.15-.76-.15-1.34v-2.78c0-.29-.03-.5-.09-.61-.06-.11-.16-.2-.28-.26s-.35-.09-.68-.08v-.25h2.18v4.16c0,.58.1.96.3,1.14.2.18.44.27.73.27.19,0,.42-.06.66-.18.25-.12.54-.35.88-.7v-3.52c0-.35-.06-.59-.19-.72-.13-.12-.4-.19-.8-.2v-.25h2.12Z" fill="#231815"/>
          <path d="M175.81,139.57c0,.92.22,1.65.67,2.17s.98.79,1.6.79c.41,0,.76-.11,1.06-.34.3-.22.55-.61.76-1.15l.21.14c-.1.62-.37,1.18-.83,1.69-.46.51-1.03.76-1.72.76-.75,0-1.39-.29-1.92-.87-.53-.58-.8-1.36-.8-2.34,0-1.06.27-1.89.82-2.49.55-.6,1.23-.89,2.05-.89.7,0,1.27.23,1.72.69.45.46.67,1.07.67,1.84h-4.3ZM175.81,139.17h2.88c-.02-.4-.07-.68-.14-.84-.11-.25-.28-.45-.51-.6-.22-.14-.46-.22-.7-.22-.38,0-.71.15-1.01.44s-.47.7-.52,1.22Z" fill="#231815"/>
          <path d="M182.75,138.36c.73-.88,1.42-1.32,2.08-1.32.34,0,.63.08.88.25.24.17.44.45.58.84.1.27.15.69.15,1.25v2.65c0,.39.03.66.1.8.05.11.13.2.24.26s.32.1.61.1v.24h-3.07v-.24h.13c.29,0,.49-.04.61-.13.12-.09.2-.22.24-.39.02-.07.03-.28.03-.64v-2.55c0-.57-.07-.98-.22-1.23-.15-.26-.4-.38-.74-.38-.54,0-1.07.29-1.61.88v3.28c0,.42.02.68.07.78.06.13.15.23.26.29s.34.09.68.09v.24h-3.07v-.24h.14c.32,0,.53-.08.64-.24s.17-.47.17-.92v-2.31c0-.75-.02-1.2-.05-1.36-.03-.16-.09-.27-.16-.33-.07-.06-.16-.09-.28-.09-.13,0-.28.03-.46.1l-.1-.24,1.87-.76h.29v1.32Z" fill="#231815"/>
          <path d="M189.69,135.18v2.04h1.45v.48h-1.45v4.03c0,.4.06.67.17.81.12.14.26.21.44.21.15,0,.29-.05.43-.14s.25-.23.33-.41h.26c-.16.44-.38.78-.67,1-.29.22-.59.34-.9.34-.21,0-.41-.06-.61-.17-.2-.12-.35-.28-.44-.5-.09-.21-.14-.55-.14-.99v-4.18h-.98v-.22c.25-.1.5-.27.76-.51.26-.24.49-.52.7-.85.1-.17.25-.49.43-.94h.21Z" fill="#231815"/>
        </g>
        <rect x="140.36" y="255.39" width="59.57" height="51.46" fill="#956533"/>
        <rect x="139.93" y="178.78" width="60.38" height="128.52" fill="none" stroke="#231815" stroke-miterlimit="10"/>
        <line x1="140.36" y1="255.39" x2="199.93" y2="255.39" fill="#956533" stroke="#040000" stroke-miterlimit="10"/>
        <g>
          <line x1="170.16" y1="172.48" x2="170.16" y2="294.94" fill="none" stroke="#231815" stroke-miterlimit="10"/>
          <ellipse cx="159.25" cy="295.08" rx="10.91" ry="3.93" fill="none" stroke="#231815" stroke-miterlimit="10"/>
          <ellipse cx="181.07" cy="295.08" rx="10.91" ry="3.93" fill="none" stroke="#231815" stroke-miterlimit="10"/>
        </g>
        <g>
          <polyline points="113.96 158.09 154.67 158.09 154.67 225.45" fill="none" stroke="#7492cb" stroke-miterlimit="10"/>
          <path d="M154.67,227.26c-.32-.85-.86-1.91-1.43-2.56l1.43.52,1.43-.52c-.57.66-1.11,1.71-1.43,2.56Z" fill="#7492cb"/>
        </g>
      </g>
      <g>
        <path d="M346.41,524.36l-18.42-25.35c-8.36,5.98-18.6,9.51-29.66,9.51-4.32,0-8.51-.55-12.52-1.56l6.9-9.25-62.63-7.37,24.93,57.92,11.15-14.96c9.88,4.2,20.75,6.53,32.16,6.53,17.95,0,34.55-5.74,48.08-15.48Z" fill="#35aa4c"/>
        <path d="M412.46,401.6l-29.8,9.68c3.1,9.8,3.3,20.63-.12,31.15-1.34,4.11-3.15,7.93-5.35,11.42l-6.67-9.42-26.36,57.29,62.79-5.81-10.78-15.23c7.05-8.1,12.62-17.72,16.15-28.57,5.55-17.07,5.22-34.63.13-50.51Z" fill="#77b747"/>
        <path d="M317.28,301.47v31.33c10.28.08,20.64,3.24,29.59,9.74,3.5,2.54,6.56,5.44,9.21,8.62l-11.02,3.43,46.34,42.78,13.88-61.52-17.81,5.54c-5.53-9.2-12.95-17.48-22.18-24.19-14.52-10.55-31.33-15.66-48-15.73Z" fill="#91c043"/>
        <path d="M191.37,360.87l29.8,9.68c3.25-9.75,9.45-18.63,18.41-25.13,3.5-2.54,7.21-4.56,11.04-6.1l-.14,11.54,55-30.85-54.22-32.21-.23,18.65c-10.46,2.41-20.62,6.91-29.86,13.62-14.52,10.55-24.58,24.95-29.8,40.79Z" fill="#a6c73d"/>
        <path d="M209.98,498.39l18.42-25.35c-8.27-6.11-14.79-14.75-18.21-25.27-1.34-4.11-2.11-8.26-2.39-12.39l10.93,3.7-12.34-61.84-47.38,41.61,17.67,5.98c-.94,10.7.2,21.75,3.73,32.61,5.55,17.07,16.14,31.08,29.58,40.94Z" fill="#107c3c"/>
      </g>
      <g>
        <g>
          <rect x="441.41" y="435.85" width="60.34" height="97.71" fill="#956533"/>
          <line x1="441.41" y1="435.85" x2="500.98" y2="435.85" fill="#956533" stroke="#040000" stroke-miterlimit="10"/>
          <g>
            <rect x="441.8" y="405.06" width="60.38" height="128.52" fill="none" stroke="#231815" stroke-miterlimit="10"/>
            <rect x="441.8" y="405.58" width="60.38" height="128.52" transform="translate(943.97 939.67) rotate(-180)" fill="none" stroke="#231815" stroke-miterlimit="10"/>
            <g>
              <line x1="471.83" y1="399.81" x2="471.83" y2="522.27" fill="none" stroke="#231815" stroke-miterlimit="10"/>
              <ellipse cx="460.93" cy="522.41" rx="10.91" ry="3.93" fill="none" stroke="#231815" stroke-miterlimit="10"/>
              <ellipse cx="482.74" cy="522.41" rx="10.91" ry="3.93" fill="none" stroke="#231815" stroke-miterlimit="10"/>
            </g>
            <g>
              <path d="M480.15,492.71l-15.54.73,2.22,1.22c-.69.03-1.4.05-2.13.05-6.32,0-11.45-1.24-11.45-2.78,0-1.12,2.76-2.09,6.72-2.53l-2.35-1.18c-5.98.63-10.15,2.08-10.15,3.76,0,2.27,7.59,4.11,16.94,4.11,1.65,0,3.23-.06,4.74-.17l3.45,1.89,7.55-5.11Z" fill="none" stroke="#070f2a" stroke-miterlimit="10" stroke-width=".5"/>
              <path d="M463.82,487.48l15.54-.73-2.22-1.22c.69-.03,1.4-.05,2.13-.05,6.32,0,11.45,1.24,11.45,2.78,0,1.12-2.76,2.09-6.72,2.53l2.35,1.18c5.98-.63,10.15-2.08,10.15-3.76,0-2.27-7.59-4.11-16.94-4.11-1.65,0-3.23.06-4.74.17l-3.45-1.89-7.55,5.11Z" fill="none" stroke="#070f2a" stroke-miterlimit="10" stroke-width=".5"/>
            </g>
          </g>
          <g>
            <line x1="471.41" y1="400.43" x2="471.41" y2="522.89" fill="none" stroke="#231815" stroke-miterlimit="10"/>
            <ellipse cx="460.5" cy="523.03" rx="10.91" ry="3.93" fill="none" stroke="#231815" stroke-miterlimit="10"/>
            <ellipse cx="482.32" cy="523.03" rx="10.91" ry="3.93" fill="none" stroke="#231815" stroke-miterlimit="10"/>
          </g>
        </g>
        <circle cx="460.06" cy="468.85" r="1.99" fill="#fff"/>
        <circle cx="470.98" cy="461.9" r="2.98" fill="#fff"/>
        <circle cx="460.06" cy="454.95" r="1.99" fill="#fff"/>
        <circle cx="485.87" cy="456.93" r="1.99" fill="#fff"/>
        <circle cx="481.9" cy="466.86" r="1.99" fill="#fff"/>
        <circle cx="479.91" cy="452.96" r="1.99" fill="#fff"/>
        <circle cx="453.66" cy="456.27" r="1.21" fill="#fff"/>
        <circle cx="476.71" cy="466.75" r="1.21" fill="#fff"/>
        <circle cx="467.56" cy="455.61" r="1.21" fill="#fff"/>
        <circle cx="490.83" cy="463.88" r="2.98" fill="#fff"/>
        <circle cx="467.56" cy="455.61" r="1.21" fill="#fff"/>
        <circle cx="462.04" cy="460.9" r="1.99" fill="#fff"/>
        <circle cx="454.65" cy="461.67" r="1.99" fill="#fff"/>
        <circle cx="479.91" cy="460.9" r="1.99" fill="#fff"/>
        <circle cx="475.94" cy="470.83" r="1.99" fill="#fff"/>
        <circle cx="469.32" cy="469.51" r="1.21" fill="#fff"/>
        <circle cx="466.12" cy="464.32" r="1.21" fill="#fff"/>
        <circle cx="464.14" cy="466.31" r="1.21" fill="#fff"/>
      </g>
    </g>
  </g>
</svg>